<mxfile host="app.diagrams.net" modified="2021-10-17T13:03:42.474Z" agent="5.0 (Windows NT 10.0; Win64; x64) AppleWebKit/537.36 (KHTML, like Gecko) Chrome/94.0.4606.81 Safari/537.36 Edg/94.0.992.47" etag="yDCAosztbSClUXtWY8Mn" version="15.5.4" type="github">
  <diagram id="6CNiVHpggZKwBZxo2sQT" name="Page-1">
    <mxGraphModel dx="1237" dy="489" grid="1" gridSize="10" guides="1" tooltips="1" connect="1" arrows="1" fold="1" page="1" pageScale="1" pageWidth="827" pageHeight="1169" math="0" shadow="0">
      <root>
        <mxCell id="0" />
        <mxCell id="1" parent="0" />
        <mxCell id="e35_Tb6B6gdBzHuXUNR3-1" value="读者" style="shape=umlActor;verticalLabelPosition=bottom;verticalAlign=top;html=1;outlineConnect=0;" vertex="1" parent="1">
          <mxGeometry x="40" y="130" width="40" height="70" as="geometry" />
        </mxCell>
        <mxCell id="e35_Tb6B6gdBzHuXUNR3-2" value="系统管理员&amp;nbsp;" style="shape=umlActor;verticalLabelPosition=bottom;verticalAlign=top;html=1;outlineConnect=0;" vertex="1" parent="1">
          <mxGeometry x="640" y="200" width="40" height="70" as="geometry" />
        </mxCell>
        <mxCell id="e35_Tb6B6gdBzHuXUNR3-3" value="图书管理员" style="shape=umlActor;verticalLabelPosition=bottom;verticalAlign=top;html=1;outlineConnect=0;" vertex="1" parent="1">
          <mxGeometry x="550" y="85" width="40" height="70" as="geometry" />
        </mxCell>
        <mxCell id="e35_Tb6B6gdBzHuXUNR3-5" value="借阅" style="ellipse;whiteSpace=wrap;html=1;" vertex="1" parent="1">
          <mxGeometry x="200" y="120" width="60" height="35" as="geometry" />
        </mxCell>
        <mxCell id="e35_Tb6B6gdBzHuXUNR3-6" value="归还" style="ellipse;whiteSpace=wrap;html=1;" vertex="1" parent="1">
          <mxGeometry x="200" y="160" width="60" height="35" as="geometry" />
        </mxCell>
        <mxCell id="e35_Tb6B6gdBzHuXUNR3-7" value="预约" style="ellipse;whiteSpace=wrap;html=1;" vertex="1" parent="1">
          <mxGeometry x="200" y="200" width="60" height="35" as="geometry" />
        </mxCell>
        <mxCell id="e35_Tb6B6gdBzHuXUNR3-8" value="图书超期处理" style="ellipse;whiteSpace=wrap;html=1;" vertex="1" parent="1">
          <mxGeometry x="354" y="290" width="60" height="35" as="geometry" />
        </mxCell>
        <mxCell id="e35_Tb6B6gdBzHuXUNR3-10" value="Extends" style="endArrow=block;endSize=16;endFill=0;html=1;rounded=0;exitX=1;exitY=0.3333333333333333;exitDx=0;exitDy=0;exitPerimeter=0;entryX=0;entryY=0.5;entryDx=0;entryDy=0;" edge="1" parent="1" source="e35_Tb6B6gdBzHuXUNR3-1" target="e35_Tb6B6gdBzHuXUNR3-5">
          <mxGeometry width="160" relative="1" as="geometry">
            <mxPoint x="120" y="235" as="sourcePoint" />
            <mxPoint x="280" y="235" as="targetPoint" />
          </mxGeometry>
        </mxCell>
        <mxCell id="e35_Tb6B6gdBzHuXUNR3-11" value="Extends" style="endArrow=block;endSize=16;endFill=0;html=1;rounded=0;exitX=1;exitY=0.3333333333333333;exitDx=0;exitDy=0;exitPerimeter=0;entryX=0;entryY=0.5;entryDx=0;entryDy=0;" edge="1" parent="1" source="e35_Tb6B6gdBzHuXUNR3-1" target="e35_Tb6B6gdBzHuXUNR3-6">
          <mxGeometry width="160" relative="1" as="geometry">
            <mxPoint x="170" y="320" as="sourcePoint" />
            <mxPoint x="330" y="320" as="targetPoint" />
          </mxGeometry>
        </mxCell>
        <mxCell id="e35_Tb6B6gdBzHuXUNR3-12" value="Extends" style="endArrow=block;endSize=16;endFill=0;html=1;rounded=0;exitX=1;exitY=0.3333333333333333;exitDx=0;exitDy=0;exitPerimeter=0;entryX=0;entryY=0.5;entryDx=0;entryDy=0;" edge="1" parent="1" source="e35_Tb6B6gdBzHuXUNR3-1" target="e35_Tb6B6gdBzHuXUNR3-7">
          <mxGeometry width="160" relative="1" as="geometry">
            <mxPoint x="180" y="330" as="sourcePoint" />
            <mxPoint x="340" y="330" as="targetPoint" />
          </mxGeometry>
        </mxCell>
        <mxCell id="e35_Tb6B6gdBzHuXUNR3-13" value="Extends" style="endArrow=block;endSize=16;endFill=0;html=1;rounded=0;exitX=0;exitY=0.3333333333333333;exitDx=0;exitDy=0;exitPerimeter=0;entryX=1;entryY=0.5;entryDx=0;entryDy=0;" edge="1" parent="1" source="e35_Tb6B6gdBzHuXUNR3-3" target="e35_Tb6B6gdBzHuXUNR3-17">
          <mxGeometry width="160" relative="1" as="geometry">
            <mxPoint x="190" y="340" as="sourcePoint" />
            <mxPoint x="370" y="150" as="targetPoint" />
          </mxGeometry>
        </mxCell>
        <mxCell id="e35_Tb6B6gdBzHuXUNR3-14" value="Extends" style="endArrow=block;endSize=16;endFill=0;html=1;rounded=0;exitX=0;exitY=0.3333333333333333;exitDx=0;exitDy=0;exitPerimeter=0;entryX=1;entryY=0.5;entryDx=0;entryDy=0;" edge="1" parent="1" source="e35_Tb6B6gdBzHuXUNR3-2" target="e35_Tb6B6gdBzHuXUNR3-18">
          <mxGeometry width="160" relative="1" as="geometry">
            <mxPoint x="200" y="350" as="sourcePoint" />
            <mxPoint x="360" y="350" as="targetPoint" />
          </mxGeometry>
        </mxCell>
        <mxCell id="e35_Tb6B6gdBzHuXUNR3-17" value="图书管理" style="ellipse;whiteSpace=wrap;html=1;" vertex="1" parent="1">
          <mxGeometry x="360" y="130" width="60" height="35" as="geometry" />
        </mxCell>
        <mxCell id="e35_Tb6B6gdBzHuXUNR3-18" value="用户管理" style="ellipse;whiteSpace=wrap;html=1;" vertex="1" parent="1">
          <mxGeometry x="490" y="290" width="60" height="35" as="geometry" />
        </mxCell>
        <mxCell id="e35_Tb6B6gdBzHuXUNR3-19" value="Extends" style="endArrow=block;endSize=16;endFill=0;html=1;rounded=0;entryX=1;entryY=0.5;entryDx=0;entryDy=0;exitX=0;exitY=0.5;exitDx=0;exitDy=0;" edge="1" parent="1" source="e35_Tb6B6gdBzHuXUNR3-18" target="e35_Tb6B6gdBzHuXUNR3-8">
          <mxGeometry width="160" relative="1" as="geometry">
            <mxPoint x="200" y="370" as="sourcePoint" />
            <mxPoint x="360" y="370" as="targetPoint" />
          </mxGeometry>
        </mxCell>
        <mxCell id="e35_Tb6B6gdBzHuXUNR3-20" value="include" style="endArrow=block;dashed=1;endFill=0;endSize=12;html=1;rounded=0;entryX=0;entryY=0.5;entryDx=0;entryDy=0;exitX=1;exitY=0.5;exitDx=0;exitDy=0;" edge="1" parent="1" source="e35_Tb6B6gdBzHuXUNR3-6" target="e35_Tb6B6gdBzHuXUNR3-17">
          <mxGeometry width="160" relative="1" as="geometry">
            <mxPoint x="80" y="320" as="sourcePoint" />
            <mxPoint x="250" y="300" as="targetPoint" />
          </mxGeometry>
        </mxCell>
        <mxCell id="e35_Tb6B6gdBzHuXUNR3-21" value="include" style="endArrow=block;dashed=1;endFill=0;endSize=12;html=1;rounded=0;entryX=0;entryY=0.5;entryDx=0;entryDy=0;exitX=1;exitY=0.5;exitDx=0;exitDy=0;" edge="1" parent="1" source="e35_Tb6B6gdBzHuXUNR3-7" target="e35_Tb6B6gdBzHuXUNR3-17">
          <mxGeometry width="160" relative="1" as="geometry">
            <mxPoint x="90" y="330" as="sourcePoint" />
            <mxPoint x="260" y="310" as="targetPoint" />
          </mxGeometry>
        </mxCell>
        <mxCell id="e35_Tb6B6gdBzHuXUNR3-22" value="include" style="endArrow=block;dashed=1;endFill=0;endSize=12;html=1;rounded=0;entryX=0;entryY=0.5;entryDx=0;entryDy=0;exitX=1;exitY=0.5;exitDx=0;exitDy=0;" edge="1" parent="1" source="e35_Tb6B6gdBzHuXUNR3-5" target="e35_Tb6B6gdBzHuXUNR3-17">
          <mxGeometry width="160" relative="1" as="geometry">
            <mxPoint x="100" y="340" as="sourcePoint" />
            <mxPoint x="350" y="360" as="targetPoint" />
          </mxGeometry>
        </mxCell>
        <mxCell id="e35_Tb6B6gdBzHuXUNR3-23" value="Extends" style="endArrow=block;endSize=16;endFill=0;html=1;rounded=0;exitX=0;exitY=0.5;exitDx=0;exitDy=0;entryX=1;entryY=0.5;entryDx=0;entryDy=0;" edge="1" parent="1" source="e35_Tb6B6gdBzHuXUNR3-8" target="e35_Tb6B6gdBzHuXUNR3-6">
          <mxGeometry width="160" relative="1" as="geometry">
            <mxPoint x="240" y="300.00333333333333" as="sourcePoint" />
            <mxPoint x="360" y="364.16999999999996" as="targetPoint" />
          </mxGeometry>
        </mxCell>
        <mxCell id="e35_Tb6B6gdBzHuXUNR3-24" value="Extends" style="endArrow=block;endSize=16;endFill=0;html=1;rounded=0;exitX=0;exitY=0.5;exitDx=0;exitDy=0;entryX=1;entryY=0.5;entryDx=0;entryDy=0;" edge="1" parent="1" source="e35_Tb6B6gdBzHuXUNR3-8" target="e35_Tb6B6gdBzHuXUNR3-5">
          <mxGeometry width="160" relative="1" as="geometry">
            <mxPoint x="100" y="173.33333333333337" as="sourcePoint" />
            <mxPoint x="220" y="237.5" as="targetPoint" />
          </mxGeometry>
        </mxCell>
      </root>
    </mxGraphModel>
  </diagram>
</mxfile>
